<?xml version="1.0" encoding="UTF-8" standalone="no"?>
<!DOCTYPE svg PUBLIC "-//W3C//DTD SVG 1.1//EN" "http://www.w3.org/Graphics/SVG/1.1/DTD/svg11.dtd">
<svg width="100%" height="100%" viewBox="0 0 104 104" version="1.1" xmlns="http://www.w3.org/2000/svg" xmlns:xlink="http://www.w3.org/1999/xlink" xml:space="preserve" xmlns:serif="http://www.serif.com/" style="fill-rule:evenodd;clip-rule:evenodd;stroke-linecap:round;stroke-miterlimit:32;">
    <g transform="matrix(1.05678,0,0,1.06754,-5.90537,-7.02416)">
        <path d="M104,30.935L104,79.645C104,93.087 92.976,104 79.397,104L30.191,104C16.612,104 5.588,93.087 5.588,79.645L5.588,30.935C5.588,17.493 16.612,6.58 30.191,6.58L79.397,6.58C92.976,6.58 104,17.493 104,30.935Z" style="fill:rgb(105,0,105);"/>
        <clipPath id="_clip1">
            <path d="M104,30.935L104,79.645C104,93.087 92.976,104 79.397,104L30.191,104C16.612,104 5.588,93.087 5.588,79.645L5.588,30.935C5.588,17.493 16.612,6.58 30.191,6.58L79.397,6.58C92.976,6.58 104,17.493 104,30.935Z"/>
        </clipPath>
        <g clip-path="url(#_clip1)">
            <g transform="matrix(0.638401,0,0,0.577262,-49.2276,-68.2221)">
                <rect x="-22.533" y="-22.651" width="559.743" height="551.459" style="fill:url(#_Linear2);stroke:black;stroke-width:6.25px;"/>
            </g>
        </g>
    </g>
    <g id="credits-rolled" transform="matrix(1.23675,0,0,1.23675,8.17524,-15.2685)">
        <g transform="matrix(1,0,0,1,5.22048,-4.45396)">
            <rect x="20.666" y="25.51" width="15.701" height="15.835" style="fill:none;stroke:white;stroke-width:5.05px;stroke-linejoin:round;stroke-miterlimit:1.5;"/>
            <rect x="20.666" y="25.51" width="15.701" height="15.835" style="fill:rgb(52,52,52);"/>
        </g>
        <g transform="matrix(1,0,0,1,5.22048,21.5026)">
            <rect x="20.666" y="25.51" width="15.701" height="15.835" style="fill:none;stroke:white;stroke-width:5.05px;stroke-linejoin:round;stroke-miterlimit:1.5;"/>
            <rect x="20.666" y="25.51" width="15.701" height="15.835" style="fill:rgb(52,52,52);"/>
        </g>
        <g transform="matrix(1,0,0,1,5.22048,47.3882)">
            <rect x="20.666" y="25.51" width="15.701" height="15.835" style="fill:none;stroke:white;stroke-width:5.05px;stroke-linejoin:round;stroke-miterlimit:1.5;"/>
            <rect x="20.666" y="25.51" width="15.701" height="15.835" style="fill:rgb(52,52,52);"/>
        </g>
        <g transform="matrix(1.25084,0,0,1.27803,-8.19613,43.7185)">
            <path d="M25.886,21.833C27.885,26.032 29.758,30.363 30.928,35.427C37.308,28.508 42.608,23.328 48.374,20.627C48.374,20.627 46.523,19.994 43.864,20.731C38.269,22.284 32.276,30.522 32.276,30.522C31.227,25.168 28.747,23.068 25.886,21.833Z" style="fill:white;"/>
            <path d="M25.886,21.833C28.747,23.068 31.227,25.168 32.276,30.522C32.276,30.522 38.269,22.284 43.864,20.731C46.523,19.994 48.374,20.627 48.374,20.627C42.608,23.328 37.308,28.508 30.928,35.427C29.758,30.363 27.885,26.032 25.886,21.833ZM27.34,23.357C28.874,26.696 30.28,30.168 31.285,34.06C36.652,28.29 41.297,23.805 46.149,21.038C45.549,21.058 44.838,21.146 44.048,21.365C41.902,21.961 39.706,23.597 37.83,25.328C34.946,27.989 32.825,30.904 32.825,30.904C32.669,31.119 32.396,31.222 32.133,31.166C31.87,31.11 31.666,30.905 31.615,30.646C30.845,26.716 29.272,24.635 27.34,23.357Z"/>
        </g>
        <g transform="matrix(1.25084,0,0,1.27803,-8.19613,19.0929)">
            <path d="M25.886,21.833C27.885,26.032 29.758,30.363 30.928,35.427C37.308,28.508 42.608,23.328 48.374,20.627C48.374,20.627 46.523,19.994 43.864,20.731C38.269,22.284 32.276,30.522 32.276,30.522C31.227,25.168 28.747,23.068 25.886,21.833Z" style="fill:white;"/>
            <path d="M25.886,21.833C28.747,23.068 31.227,25.168 32.276,30.522C32.276,30.522 38.269,22.284 43.864,20.731C46.523,19.994 48.374,20.627 48.374,20.627C42.608,23.328 37.308,28.508 30.928,35.427C29.758,30.363 27.885,26.032 25.886,21.833ZM27.34,23.357C28.874,26.696 30.28,30.168 31.285,34.06C36.652,28.29 41.297,23.805 46.149,21.038C45.549,21.058 44.838,21.146 44.048,21.365C41.902,21.961 39.706,23.597 37.83,25.328C34.946,27.989 32.825,30.904 32.825,30.904C32.669,31.119 32.396,31.222 32.133,31.166C31.87,31.11 31.666,30.905 31.615,30.646C30.845,26.716 29.272,24.635 27.34,23.357Z"/>
        </g>
        <g transform="matrix(1.25084,0,0,1.27803,-8.19613,-6.25156)">
            <path d="M25.886,21.833C27.885,26.032 29.758,30.363 30.928,35.427C37.308,28.508 42.608,23.328 48.374,20.627C48.374,20.627 46.523,19.994 43.864,20.731C38.269,22.284 32.276,30.522 32.276,30.522C31.227,25.168 28.747,23.068 25.886,21.833Z" style="fill:white;"/>
            <path d="M25.886,21.833C28.747,23.068 31.227,25.168 32.276,30.522C32.276,30.522 38.269,22.284 43.864,20.731C46.523,19.994 48.374,20.627 48.374,20.627C42.608,23.328 37.308,28.508 30.928,35.427C29.758,30.363 27.885,26.032 25.886,21.833ZM27.34,23.357C28.874,26.696 30.28,30.168 31.285,34.06C36.652,28.29 41.297,23.805 46.149,21.038C45.549,21.058 44.838,21.146 44.048,21.365C41.902,21.961 39.706,23.597 37.83,25.328C34.946,27.989 32.825,30.904 32.825,30.904C32.669,31.119 32.396,31.222 32.133,31.166C31.87,31.11 31.666,30.905 31.615,30.646C30.845,26.716 29.272,24.635 27.34,23.357Z"/>
        </g>
    </g>
    <defs>
        <linearGradient id="_Linear2" x1="0" y1="0" x2="1" y2="0" gradientUnits="userSpaceOnUse" gradientTransform="matrix(1.90538e-14,-340.661,340.661,2.28363e-14,144.09,410.32)"><stop offset="0" style="stop-color:rgb(24,0,41);stop-opacity:1"/><stop offset="1" style="stop-color:rgb(82,0,136);stop-opacity:1"/></linearGradient>
    </defs>
</svg>
